<?xml version="1.0" encoding="iso-8859-1"?>
<!-- Generator: Adobe Illustrator 16.0.0, SVG Export Plug-In . SVG Version: 6.00 Build 0)  -->
<!DOCTYPE svg PUBLIC "-//W3C//DTD SVG 1.1//EN" "http://www.w3.org/Graphics/SVG/1.1/DTD/svg11.dtd">
<!-- License: CC0. Made by SVG Repo: https://www.svgrepo.com/svg/55158/line-ascendant-graphic-of-zigzag-arrow -->
<svg fill="#ffd15c" version="1.1" id="Capa_1" xmlns="http://www.w3.org/2000/svg" xmlns:xlink="http://www.w3.org/1999/xlink" x="0px" y="0px"
	 width="31.8px" height="31.8px" viewBox="0 0 31.843 31.842" style="enable-background: new 0 0 31.843 31.842"
	 xml:space="preserve">
<g>
	<path transform="matrix(1,0,0,1,0,-0.6)" d="M 28.8 9.4 c 0 -0.4 -0.1 -0.8 -0.4 -1 c -0.3 -0.3 -0.6 -0.4 -1 -0.4 h -6.4 c -0.2 0 -0.3 0.1 -0.4 0.3 c -0.1 0.2 0 0.4 0.1 0.5 l 1.2 1.2 c 0.2 0.2 0.3 0.5 0.3 0.7 c 0 0.3 -0.1 0.5 -0.3 0.7 l -6.3 6.3 c -0.5 0.5 -1.4 0.5 -1.9 0 l -4 -4 c -0.2 -0.2 -0.6 -0.4 -0.9 -0.4 s -0.7 0.1 -0.9 0.4 L -2.7 24.1 c -0.5 0.5 -0.5 1.3 0 1.8 L -1.3 27.2 c 0.2 0.2 0.6 0.4 0.9 0.4 c 0.3 0 0.7 -0.1 0.9 -0.4 l 7.3 -7.3 c 0.5 -0.5 1.4 -0.5 1.9 0 l 4 4 c 0.3 0.3 0.6 0.4 1 0.4 s 0.7 -0.1 1 -0.4 l 9.4 -9.4 c 0.2 -0.2 0.5 -0.3 0.7 -0.3 c 0.3 0 0.5 0.1 0.7 0.3 l 1.5 1.5 c 0.1 0.1 0.3 0.2 0.5 0.1 c 0.2 -0.1 0.3 -0.2 0.3 -0.4 L 28.8 9.4 z"/>
</g>
    <rect transform="matrix(0.7,0.7,-0.7,0.7,16,4.3)" x="0.6" y="20.7" width="4" height="9" fill="#ffd15c"/>
</svg>
