<svg width="64" height="64" viewBox="0 0 64 64" fill="none" xmlns="http://www.w3.org/2000/svg">
<path d="M32 0C23.5131 0 15.3737 3.37142 9.37258 9.37258C3.37142 15.3737 0 23.5131 0 32C0 40.4869 3.37142 48.6263 9.37258 54.6274C15.3737 60.6286 23.5131 64 32 64V0Z" class="--highlight --highlight-default-green"></path>
<g clip-path="url(#clip0_208_4607)">
<path fill-rule="evenodd" clip-rule="evenodd" d="M32 10.3143C20.0233 10.3143 10.3143 20.0233 10.3143 32C10.3143 43.9767 20.0233 53.6857 32 53.6857C43.9767 53.6857 53.6857 43.9767 53.6857 32C53.6857 20.0233 43.9767 10.3143 32 10.3143ZM9.39999 32C9.39999 19.5184 19.5184 9.40002 32 9.40002C44.4816 9.40002 54.6 19.5184 54.6 32C54.6 44.4817 44.4816 54.6 32 54.6C19.5184 54.6 9.39999 44.4817 9.39999 32Z" fill="currentColor"></path>
<path fill-rule="evenodd" clip-rule="evenodd" d="M38.5116 16.5505L38.4286 17L37.9788 17.0817C37.9519 16.9339 37.9994 16.7823 38.1058 16.6763C38.2122 16.5702 38.3639 16.5232 38.5116 16.5505ZM39.0571 17.63C39.1733 18.019 39.3477 18.5037 39.5907 18.9544C39.8487 19.4327 40.1625 19.8321 40.5284 20.0586C40.8276 20.2438 41.1843 20.329 41.6391 20.2079C41.762 19.758 41.6784 19.4046 41.4946 19.1072C41.269 18.7423 40.8692 18.428 40.3894 18.1687C39.9361 17.9238 39.4482 17.7476 39.0571 17.63ZM42.2722 18.6264C42.6336 19.2109 42.7393 19.9236 42.4266 20.7357C42.3797 20.8575 42.283 20.9534 42.1609 20.9993C41.3453 21.306 40.6317 21.1978 40.0472 20.836C39.487 20.4893 39.0789 19.9315 38.786 19.3884C38.4898 18.8393 38.2892 18.2633 38.163 17.8307C38.0995 17.613 38.054 17.4284 38.0241 17.2972C38.0091 17.2315 37.9981 17.1791 37.9906 17.1424C37.9869 17.124 37.984 17.1095 37.9821 17.0993L37.9798 17.0872L37.9791 17.0836L37.9789 17.0825C37.9789 17.0823 37.9788 17.0817 38.4286 17C38.5116 16.5505 38.5115 16.5504 38.5116 16.5505L38.5136 16.5508L38.5172 16.5515L38.5293 16.5538C38.5395 16.5558 38.554 16.5587 38.5724 16.5625C38.6092 16.5701 38.6618 16.5813 38.7277 16.5965C38.8592 16.6269 39.0444 16.6731 39.2627 16.7373C39.6965 16.8648 40.274 17.0671 40.824 17.3643C41.3678 17.6582 41.9263 18.0668 42.2722 18.6264Z" fill="currentColor"></path>
<path fill-rule="evenodd" clip-rule="evenodd" d="M45.9151 18.8398L45.5393 19.1L45.1634 18.8398C45.2488 18.7165 45.3893 18.6429 45.5393 18.6429C45.6893 18.6429 45.8297 18.7165 45.9151 18.8398ZM45.5393 19.9877C45.3462 20.3448 45.1263 20.8108 44.9794 21.3006C44.8236 21.8198 44.7634 22.3211 44.8616 22.7358C44.9418 23.0741 45.1326 23.3825 45.5393 23.6139C45.9459 23.3825 46.1368 23.0741 46.2169 22.7358C46.3152 22.3211 46.255 21.8198 46.0992 21.3006C45.9522 20.8108 45.7324 20.3448 45.5393 19.9877ZM45.5393 19.1C45.1634 18.8398 45.1635 18.8397 45.1634 18.8398L45.1623 18.8414L45.1603 18.8444L45.1533 18.8546C45.1475 18.8632 45.1393 18.8754 45.129 18.891C45.1083 18.9222 45.079 18.9671 45.0432 19.024C44.9716 19.1378 44.8733 19.3004 44.7644 19.499C44.5478 19.8935 44.2825 20.4418 44.1037 21.0378C43.9268 21.6271 43.8207 22.3081 43.972 22.9465C44.1299 23.6134 44.5594 24.1899 45.3537 24.5428C45.4718 24.5953 45.6067 24.5953 45.7249 24.5428C46.5191 24.1899 46.9486 23.6134 47.1066 22.9465C47.2578 22.3081 47.1517 21.6271 46.9749 21.0378C46.7961 20.4418 46.5307 19.8935 46.3142 19.499C46.2052 19.3004 46.1069 19.1378 46.0354 19.024C45.9995 18.9671 45.9703 18.9222 45.9496 18.891C45.9393 18.8754 45.9311 18.8632 45.9252 18.8546L45.9183 18.8444L45.9162 18.8414L45.9156 18.8404C45.9155 18.8403 45.9151 18.8398 45.5393 19.1Z" fill="currentColor"></path>
<path fill-rule="evenodd" clip-rule="evenodd" d="M49.9724 24.6099L49.525 24.7036L49.2792 24.3182C49.4058 24.2374 49.5639 24.224 49.7023 24.2822C49.8407 24.3405 49.9416 24.4629 49.9724 24.6099ZM49.1804 25.5227C48.8628 25.7781 48.478 26.124 48.1514 26.5202C47.8057 26.9398 47.5554 27.3799 47.4854 27.801C47.4282 28.1449 47.4853 28.5039 47.7725 28.8755C48.2371 28.82 48.5328 28.6094 48.7382 28.3276C48.9898 27.9824 49.129 27.4954 49.187 26.9549C49.2417 26.4446 49.2198 25.928 49.1804 25.5227ZM49.525 24.7036C49.2792 24.3182 49.2793 24.3181 49.2792 24.3182L49.2775 24.3192L49.2744 24.3212L49.2641 24.3279C49.2554 24.3336 49.2431 24.3417 49.2274 24.3521C49.1962 24.3729 49.1517 24.4031 49.0965 24.4418C48.9861 24.5193 48.8321 24.6315 48.6542 24.7728C48.3008 25.0535 47.8426 25.4574 47.4459 25.9388C47.0536 26.4147 46.6912 27.0028 46.5835 27.6511C46.4709 28.3284 46.6447 29.0272 47.2426 29.6603C47.3311 29.7541 47.4551 29.806 47.584 29.8035C48.4533 29.7864 49.0729 29.4206 49.477 28.8662C49.8639 28.3355 50.0303 27.6654 50.096 27.0523C50.1625 26.4323 50.1308 25.8226 50.0843 25.374C50.061 25.1482 50.0335 24.9597 50.0117 24.8268C50.0008 24.7602 49.9913 24.7074 49.9843 24.6705C49.9808 24.6521 49.978 24.6376 49.976 24.6274L49.9736 24.6154L49.9728 24.6118L49.9726 24.6106C49.9725 24.6104 49.9724 24.6099 49.525 24.7036Z" fill="currentColor"></path>
<path fill-rule="evenodd" clip-rule="evenodd" d="M51.7646 31.0611C51.7648 31.0611 51.7649 31.0611 51.7464 31.5179C52.1676 31.6956 52.1675 31.6958 52.1675 31.6959L52.1668 31.6974L52.1654 31.7008L52.1605 31.7121C52.1564 31.7216 52.1505 31.7351 52.1429 31.7522C52.1276 31.7864 52.1054 31.8351 52.0765 31.8959C52.0188 32.0174 51.9342 32.1875 51.825 32.386C51.608 32.7804 51.2873 33.2984 50.88 33.7689C50.4772 34.2341 49.9591 34.6887 49.3389 34.903C48.6911 35.127 47.974 35.073 47.2502 34.5913C47.1426 34.5196 47.0704 34.4058 47.0514 34.278C46.9235 33.4178 47.1799 32.7459 47.6583 32.255C48.1163 31.785 48.7483 31.5097 49.3407 31.3434C49.9399 31.1751 50.5451 31.1055 50.9943 31.0771C51.2204 31.0628 51.4104 31.0587 51.5449 31.0582C51.6122 31.058 51.6658 31.0586 51.7032 31.0594C51.7219 31.0598 51.7366 31.0602 51.747 31.0605L51.7593 31.0609L51.763 31.061L51.7646 31.0611ZM51.7464 31.5179L52.1675 31.6959C52.2258 31.5578 52.2127 31.3995 52.1324 31.2729C52.0521 31.1463 51.9144 31.0672 51.7646 31.0611L51.7464 31.5179ZM50.9974 31.9932C50.5922 32.0214 50.0806 32.0852 49.5879 32.2236C49.066 32.3702 48.6105 32.588 48.3131 32.8931C48.0704 33.1422 47.9123 33.4688 47.935 33.9369C48.3487 34.1566 48.7115 34.1525 49.0402 34.0389C49.4429 33.8997 49.8339 33.5802 50.1888 33.1704C50.5237 32.7835 50.7994 32.3478 50.9974 31.9932Z" fill="currentColor"></path>
<path fill-rule="evenodd" clip-rule="evenodd" d="M50.876 37.1796C50.8762 37.1797 50.8763 37.1797 50.7143 37.6072C51.0572 37.9096 51.0571 37.9097 51.0569 37.9098L51.0559 37.911L51.0534 37.9138L51.0452 37.9229C51.0383 37.9306 51.0284 37.9415 51.0157 37.9553C50.9904 37.9829 50.9538 38.0221 50.9071 38.0706C50.8138 38.1674 50.6795 38.3019 50.5129 38.4555C50.1818 38.7606 49.7132 39.1501 49.1775 39.4671C48.6478 39.7806 48.0122 40.0476 47.3563 40.0547C46.6711 40.0621 46.0081 39.7843 45.4748 39.0985C45.3955 38.9965 45.363 38.8656 45.3856 38.7383C45.5369 37.8823 45.9932 37.3265 46.6025 37.0125C47.1859 36.7119 47.8725 36.6508 48.4872 36.6805C49.1089 36.7105 49.7051 36.836 50.1403 36.9511C50.3593 37.0091 50.5408 37.0653 50.6685 37.1074C50.7324 37.1285 50.7831 37.146 50.8183 37.1586C50.836 37.1649 50.8498 37.1699 50.8595 37.1735L50.8711 37.1778L50.8745 37.179L50.876 37.1796ZM50.7143 37.6072L51.0569 37.9098C51.1562 37.7973 51.1941 37.6429 51.158 37.4973C51.1219 37.3516 51.0163 37.2328 50.876 37.1796L50.7143 37.6072ZM49.8522 37.8208C49.459 37.7195 48.9539 37.6184 48.4431 37.5937C47.9016 37.5676 47.4003 37.6299 47.0213 37.8252C46.7121 37.9846 46.4586 38.2443 46.3318 38.6949C46.6537 39.0334 46.9987 39.1442 47.3464 39.1404C47.7726 39.1358 48.245 38.9566 48.7118 38.6803C49.1521 38.4197 49.5517 38.0942 49.8522 37.8208Z" fill="currentColor"></path>
<path fill-rule="evenodd" clip-rule="evenodd" d="M47.8621 42.6242C47.8623 42.6243 47.8624 42.6244 47.6071 43.0036C47.8723 43.376 47.8722 43.3761 47.872 43.3762L47.8707 43.3771L47.8677 43.3792L47.8576 43.3863C47.8491 43.3922 47.837 43.4006 47.8216 43.4112C47.7906 43.4322 47.7461 43.4621 47.6897 43.4986C47.5768 43.5717 47.4156 43.6721 47.2185 43.7837C46.8268 44.0054 46.2821 44.2779 45.6885 44.4647C45.1016 44.6493 44.4221 44.7645 43.7818 44.6221C43.1129 44.4732 42.5306 44.0519 42.167 43.2628C42.1128 43.1454 42.111 43.0105 42.1619 42.8916C42.504 42.0922 43.0747 41.6546 43.7395 41.4875C44.3759 41.3275 45.0584 41.4245 45.6501 41.5935C46.2486 41.7644 46.8004 42.0226 47.1979 42.2339C47.3979 42.3403 47.5618 42.4365 47.6766 42.5066C47.734 42.5416 47.7793 42.5703 47.8108 42.5906C47.8265 42.6007 47.8388 42.6088 47.8475 42.6145L47.8577 42.6213L47.8608 42.6233L47.8621 42.6242ZM47.6071 43.0036L47.872 43.3762C47.9942 43.2892 48.0662 43.1476 48.0642 42.9976C48.0623 42.8476 47.9866 42.708 47.8621 42.6242L47.6071 43.0036ZM46.7196 43.0153C46.3598 42.8269 45.8908 42.6131 45.399 42.4726C44.8777 42.3238 44.3756 42.2703 43.9624 42.3742C43.6251 42.459 43.3192 42.6542 43.0932 43.0644C43.33 43.4675 43.6409 43.6541 43.9804 43.7296C44.3964 43.8222 44.897 43.7552 45.4142 43.5925C45.902 43.4391 46.365 43.2131 46.7196 43.0153Z" fill="currentColor"></path>
<path fill-rule="evenodd" clip-rule="evenodd" d="M26.0212 17.0817L25.5714 17L25.4883 16.5505C25.6361 16.5232 25.7878 16.5702 25.8942 16.6763C26.0006 16.7823 26.0481 16.9339 26.0212 17.0817ZM24.9429 17.63C24.5518 17.7476 24.0638 17.9238 23.6106 18.1687C23.1308 18.428 22.731 18.7423 22.5054 19.1072C22.3215 19.4046 22.2379 19.758 22.3608 20.2079C22.8157 20.329 23.1724 20.2438 23.4716 20.0586C23.8375 19.8321 24.1513 19.4327 24.4093 18.9544C24.6523 18.5037 24.8267 18.019 24.9429 17.63ZM25.5714 17C25.4883 16.5505 25.4885 16.5504 25.4883 16.5505L25.4864 16.5508L25.4828 16.5515L25.4707 16.5538C25.4605 16.5558 25.446 16.5587 25.4276 16.5625C25.3908 16.5701 25.3382 16.5813 25.2723 16.5965C25.1408 16.6269 24.9556 16.6731 24.7373 16.7373C24.3035 16.8648 23.726 17.0671 23.176 17.3643C22.6322 17.6582 22.0737 18.0668 21.7277 18.6264C21.3664 19.2109 21.2607 19.9236 21.5734 20.7357C21.6203 20.8575 21.717 20.9534 21.8391 20.9993C22.6547 21.306 23.3683 21.1978 23.9528 20.836C24.513 20.4893 24.921 19.9315 25.214 19.3884C25.5101 18.8393 25.7108 18.2633 25.837 17.8307C25.9005 17.613 25.946 17.4284 25.9759 17.2972C25.9909 17.2315 26.0019 17.1791 26.0094 17.1424C26.0131 17.124 26.0159 17.1095 26.0179 17.0993L26.0202 17.0872L26.0209 17.0836L26.0212 17.0817C26.0212 17.0815 26.0212 17.0817 25.5714 17Z" fill="currentColor"></path>
<path fill-rule="evenodd" clip-rule="evenodd" d="M18.8366 18.8398L18.4607 19.1L18.0849 18.8398C18.1703 18.7165 18.3107 18.6429 18.4607 18.6429C18.6107 18.6429 18.7512 18.7165 18.8366 18.8398ZM18.4607 19.9877C18.2676 20.3448 18.0478 20.8108 17.9008 21.3006C17.745 21.8198 17.6848 22.3211 17.7831 22.7358C17.8632 23.0741 18.0541 23.3825 18.4607 23.6139C18.8674 23.3825 19.0582 23.0741 19.1384 22.7358C19.2366 22.3211 19.1764 21.8198 19.0206 21.3006C18.8737 20.8108 18.6538 20.3448 18.4607 19.9877ZM18.4607 19.1C18.0849 18.8398 18.085 18.8397 18.0849 18.8398L18.0838 18.8414L18.0817 18.8444L18.0748 18.8546C18.0689 18.8632 18.0607 18.8754 18.0504 18.891C18.0297 18.9222 18.0005 18.9671 17.9647 19.024C17.8931 19.1378 17.7948 19.3004 17.6858 19.499C17.4693 19.8935 17.2039 20.4418 17.0251 21.0378C16.8483 21.6271 16.7422 22.3081 16.8934 22.9465C17.0514 23.6134 17.4809 24.1899 18.2751 24.5428C18.3933 24.5953 18.5282 24.5953 18.6463 24.5428C19.4406 24.1899 19.8701 23.6134 20.028 22.9465C20.1793 22.3081 20.0732 21.6271 19.8964 21.0378C19.7175 20.4418 19.4522 19.8935 19.2356 19.499C19.1267 19.3004 19.0284 19.1378 18.9568 19.024C18.921 18.9671 18.8917 18.9222 18.8711 18.891C18.8607 18.8754 18.8525 18.8632 18.8467 18.8546L18.8398 18.8444L18.8377 18.8414L18.837 18.8404C18.8369 18.8403 18.8366 18.8398 18.4607 19.1Z" fill="currentColor"></path>
<path fill-rule="evenodd" clip-rule="evenodd" d="M14.7208 24.3182L14.475 24.7036L14.0276 24.6099C14.0584 24.4629 14.1593 24.3405 14.2977 24.2822C14.4361 24.224 14.5942 24.2374 14.7208 24.3182ZM14.8196 25.5227C14.7802 25.928 14.7583 26.4446 14.813 26.9549C14.871 27.4954 15.0101 27.9824 15.2618 28.3276C15.4672 28.6094 15.7629 28.82 16.2275 28.8755C16.5147 28.5039 16.5718 28.1449 16.5146 27.801C16.4446 27.3799 16.1943 26.9398 15.8486 26.5202C15.522 26.124 15.1372 25.7781 14.8196 25.5227ZM17.4165 27.6511C17.5291 28.3284 17.3553 29.0272 16.7574 29.6603C16.6689 29.7541 16.5449 29.806 16.416 29.8035C15.5467 29.7864 14.9271 29.4206 14.523 28.8662C14.1361 28.3355 13.9697 27.6654 13.904 27.0523C13.8375 26.4323 13.8692 25.8226 13.9157 25.374C13.939 25.1482 13.9665 24.9597 13.9883 24.8268C13.9992 24.7602 14.0087 24.7074 14.0157 24.6705C14.0192 24.6521 14.022 24.6376 14.024 24.6274L14.0264 24.6154L14.0272 24.6118L14.0276 24.6099C14.0276 24.6097 14.0276 24.6099 14.475 24.7036C14.7208 24.3182 14.7207 24.3181 14.7208 24.3182L14.7225 24.3192L14.7255 24.3212L14.7359 24.3279C14.7446 24.3336 14.7569 24.3417 14.7726 24.3521C14.8038 24.3729 14.8483 24.4031 14.9035 24.4418C15.0139 24.5193 15.1679 24.6315 15.3458 24.7728C15.6992 25.0535 16.1574 25.4574 16.5541 25.9388C16.9463 26.4147 17.3088 27.0028 17.4165 27.6511Z" fill="currentColor"></path>
<path fill-rule="evenodd" clip-rule="evenodd" d="M12.2536 31.5179C11.8326 31.696 11.8326 31.6962 11.8327 31.6963L11.8333 31.6978L11.8348 31.7012L11.8397 31.7125C11.8438 31.722 11.8497 31.7355 11.8574 31.7526C11.8727 31.7867 11.8949 31.8354 11.9238 31.8962C11.9816 32.0175 12.0663 32.1875 12.1757 32.3859C12.393 32.7799 12.714 33.2975 13.1215 33.7677C13.5245 34.2326 14.0426 34.687 14.6624 34.9015C15.3098 35.1256 16.0265 35.0723 16.7496 34.5913C16.8573 34.5197 16.9296 34.4059 16.9486 34.278C17.0765 33.4178 16.8201 32.7459 16.3417 32.255C15.8837 31.785 15.2517 31.5097 14.6593 31.3434C14.0601 31.1751 13.4549 31.1055 13.0057 31.0771C12.7796 31.0628 12.5896 31.0587 12.4551 31.0582C12.3878 31.058 12.3342 31.0586 12.2968 31.0594C12.2781 31.0598 12.2634 31.0602 12.253 31.0605L12.2407 31.0609L12.237 31.061L12.2358 31.0611C12.2357 31.0611 12.2351 31.0611 12.2536 31.5179ZM13.0035 31.9932C13.2017 32.3475 13.4775 32.7825 13.8124 33.1689C14.1675 33.5786 14.5587 33.8981 14.9615 34.0375C15.2901 34.1512 15.6524 34.1554 16.065 33.9367C16.0877 33.4688 15.9296 33.1421 15.6869 32.8931C15.3895 32.588 14.934 32.3702 14.4121 32.2236C13.9198 32.0853 13.4085 32.0215 13.0035 31.9932ZM12.2536 31.5179L12.2351 31.0611C12.0852 31.0672 11.9478 31.1464 11.8675 31.2731C11.7871 31.3998 11.7742 31.5582 11.8327 31.6963L12.2536 31.5179ZM12.2717 31.9746C12.2717 31.9746 12.2717 31.9746 12.2717 31.9746V31.9746ZM12.6745 31.3395C12.6744 31.3394 12.6744 31.3394 12.6745 31.3395V31.3395Z" fill="currentColor"></path>
<path fill-rule="evenodd" clip-rule="evenodd" d="M13.2857 37.6072C12.9428 37.9096 12.9429 37.9097 12.9431 37.9098L12.9441 37.911L12.9466 37.9138L12.9548 37.9229C12.9617 37.9306 12.9716 37.9415 12.9843 37.9553C13.0096 37.9829 13.0462 38.0221 13.0928 38.0706C13.1861 38.1674 13.3204 38.3019 13.4871 38.4555C13.8182 38.7606 14.2868 39.1501 14.8225 39.4671C15.3521 39.7806 15.9877 40.0476 16.6437 40.0547C17.3289 40.0621 17.9919 39.7843 18.5251 39.0985C18.6045 38.9965 18.6369 38.8656 18.6144 38.7383C18.4631 37.8823 18.0068 37.3265 17.3974 37.0125C16.8141 36.7119 16.1274 36.6508 15.5128 36.6805C14.8911 36.7105 14.2949 36.836 13.8597 36.9511C13.6407 37.0091 13.4592 37.0653 13.3315 37.1074C13.2675 37.1285 13.2169 37.146 13.1817 37.1586C13.164 37.1649 13.1502 37.1699 13.1404 37.1735L13.1289 37.1778L13.1255 37.179L13.1244 37.1795C13.1242 37.1795 13.1237 37.1797 13.2857 37.6072ZM14.1478 37.8208C14.4483 38.0942 14.8479 38.4197 15.2882 38.6803C15.755 38.9566 16.2274 39.1358 16.6536 39.1404C17.0013 39.1442 17.3463 39.0334 17.6682 38.6949C17.5414 38.2443 17.2879 37.9846 16.9786 37.8252C16.5997 37.6299 16.0984 37.5676 15.5568 37.5937C15.0461 37.6184 14.541 37.7195 14.1478 37.8208ZM13.2857 37.6072L13.1237 37.1797C12.9833 37.2329 12.8781 37.3516 12.842 37.4973C12.8059 37.6429 12.8438 37.7973 12.9431 37.9098L13.2857 37.6072ZM13.6284 37.3046C13.6283 37.3046 13.6284 37.3046 13.6284 37.3046V37.3046Z" fill="currentColor"></path>
<path fill-rule="evenodd" clip-rule="evenodd" d="M16.3928 43C16.1281 43.3727 16.1282 43.3728 16.1284 43.3729L16.1297 43.3738L16.1327 43.376L16.1428 43.383C16.1513 43.3889 16.1635 43.3973 16.179 43.4079C16.21 43.429 16.2546 43.4588 16.3112 43.4954C16.4244 43.5686 16.5862 43.6691 16.7838 43.7808C17.1764 44.0028 17.7223 44.2757 18.3167 44.4628C18.9042 44.6478 19.5842 44.7636 20.2241 44.6215C20.8929 44.4729 21.474 44.051 21.8339 43.2609C21.8872 43.1439 21.8887 43.0098 21.8381 42.8916C21.496 42.0922 20.9254 41.6545 20.2607 41.487C19.6244 41.3266 18.9419 41.4231 18.3502 41.5916C17.7517 41.7621 17.1999 42.0197 16.8024 42.2307C16.6024 42.3369 16.4384 42.433 16.3237 42.503C16.2662 42.538 16.221 42.5666 16.1895 42.5869C16.1737 42.597 16.1614 42.605 16.1527 42.6107L16.1425 42.6175L16.1394 42.6195L16.1384 42.6202C16.1383 42.6203 16.1378 42.6206 16.3928 43ZM17.2815 43.0117C17.6374 43.21 18.1021 43.4367 18.5913 43.5908C19.1096 43.754 19.6106 43.8212 20.0258 43.729C20.3642 43.6538 20.6733 43.4679 20.9074 43.0655C20.6813 42.6543 20.375 42.4586 20.0373 42.3736C19.624 42.2694 19.1219 42.3225 18.6006 42.4709C18.1095 42.6108 17.6411 42.8238 17.2815 43.0117ZM16.1378 42.6206L16.3928 43L16.1284 43.3729C16.006 43.286 15.9338 43.1443 15.9357 42.9941C15.9377 42.844 16.0132 42.7044 16.1378 42.6206Z" fill="currentColor"></path>
<path fill-rule="evenodd" clip-rule="evenodd" d="M41.6461 20.2821C41.8059 20.0867 42.0939 20.0578 42.2893 20.2176C45.6495 22.9647 47.7673 27.4496 47.7679 32.1055C47.79 35.3171 46.7627 38.4481 44.8423 41.0224C42.9216 43.5971 40.2125 45.474 37.1272 46.3677L37.1256 46.3682C36.8808 46.4381 36.6293 46.5072 36.3735 46.5775C35.2919 46.8748 34.1345 47.1929 33.0862 47.6822C31.8006 48.2821 30.7616 49.1044 30.2852 50.3748C30.1965 50.6112 29.933 50.731 29.6966 50.6424C29.4602 50.5537 29.3405 50.2902 29.4291 50.0538C30.0241 48.4671 31.3066 47.5037 32.6995 46.8536C33.8253 46.3283 35.0773 45.9848 36.1621 45.6871C36.4092 45.6193 36.6476 45.5538 36.8739 45.4892C39.7675 44.6508 42.3081 42.8904 44.1095 40.4757C45.9111 38.0606 46.8746 35.1233 46.8536 32.1104L46.8536 32.1072C46.8536 27.7137 44.8501 23.4922 41.7106 20.9254C41.5152 20.7656 41.4863 20.4776 41.6461 20.2821Z" fill="currentColor"></path>
<path fill-rule="evenodd" clip-rule="evenodd" d="M22.3539 20.2821C22.5137 20.4776 22.4848 20.7656 22.2893 20.9254C19.1499 23.4922 17.1464 27.7137 17.1464 32.1072V32.1104H17.1464C17.1254 35.1233 18.0889 38.0606 19.8905 40.4757C21.6919 42.8904 24.2325 44.6508 27.1261 45.4892C27.3524 45.5539 27.5908 45.6193 27.8378 45.6871C28.9227 45.9848 30.1747 46.3283 31.3004 46.8536C32.6934 47.5037 33.9759 48.4671 34.5709 50.0538C34.6595 50.2902 34.5398 50.5537 34.3034 50.6424C34.067 50.731 33.8035 50.6112 33.7148 50.3748C33.2384 49.1044 32.1994 48.2821 30.9138 47.6822C29.8655 47.1929 28.708 46.8748 27.6265 46.5775C27.3707 46.5072 27.1192 46.4381 26.8744 46.3682L26.8728 46.3677C23.7874 45.474 21.0784 43.5971 19.1577 41.0224C17.2373 38.4481 16.21 35.3171 16.2321 32.1056C16.2326 27.4497 18.3505 22.9647 21.7106 20.2176C21.9061 20.0578 22.1941 20.0867 22.3539 20.2821Z" fill="currentColor"></path>
<path fill-rule="evenodd" clip-rule="evenodd" d="M25.4714 29.1429C25.4714 28.8904 25.6761 28.6857 25.9286 28.6857H38.0714C38.3239 28.6857 38.5286 28.8904 38.5286 29.1429V40.5714C38.5286 40.8239 38.3239 41.0286 38.0714 41.0286H25.9286C25.6761 41.0286 25.4714 40.8239 25.4714 40.5714V29.1429ZM26.3857 29.6V40.1143H37.6143V29.6H26.3857Z" fill="currentColor"></path>
<path fill-rule="evenodd" clip-rule="evenodd" d="M32 22.1C30.9846 22.1 30.0108 22.5034 29.2928 23.2214C28.5748 23.9394 28.1714 24.9132 28.1714 25.9286V28.7857C28.1714 29.0382 27.9668 29.2429 27.7143 29.2429C27.4618 29.2429 27.2571 29.0382 27.2571 28.7857V25.9286C27.2571 24.6707 27.7568 23.4643 28.6463 22.5749C29.5357 21.6854 30.7421 21.1857 32 21.1857C33.2579 21.1857 34.4642 21.6854 35.3537 22.5749C36.2432 23.4643 36.7429 24.6707 36.7429 25.9286V28.7857C36.7429 29.0382 36.5382 29.2429 36.2857 29.2429C36.0332 29.2429 35.8286 29.0382 35.8286 28.7857V25.9286C35.8286 24.9132 35.4252 23.9394 34.7072 23.2214C33.9892 22.5034 33.0154 22.1 32 22.1Z" fill="currentColor"></path>
<path fill-rule="evenodd" clip-rule="evenodd" d="M32 33.5286C31.2662 33.5286 30.6714 34.1234 30.6714 34.8572C30.6714 35.5909 31.2662 36.1857 32 36.1857C32.7337 36.1857 33.3286 35.5909 33.3286 34.8572C33.3286 34.1234 32.7337 33.5286 32 33.5286ZM29.7571 34.8572C29.7571 33.6185 30.7613 32.6143 32 32.6143C33.2387 32.6143 34.2429 33.6185 34.2429 34.8572C34.2429 36.0959 33.2387 37.1 32 37.1C30.7613 37.1 29.7571 36.0959 29.7571 34.8572Z" fill="currentColor"></path>
</g>
<path opacity="0.8" d="M32 0C23.5131 0 15.3737 3.37142 9.37258 9.37258C3.37142 15.3737 0 23.5131 0 32C0 40.4869 3.37142 48.6263 9.37258 54.6274C15.3737 60.6286 23.5131 64 32 64V0Z" class="--highlight --highlight-default-green"></path>
<g clip-path="url(#clip1_208_4607)">
<path fill-rule="evenodd" clip-rule="evenodd" d="M32 10.3143C20.0233 10.3143 10.3143 20.0233 10.3143 32C10.3143 43.9767 20.0233 53.6857 32 53.6857C43.9767 53.6857 53.6857 43.9767 53.6857 32C53.6857 20.0233 43.9767 10.3143 32 10.3143ZM9.39999 32C9.39999 19.5184 19.5184 9.40002 32 9.40002C44.4816 9.40002 54.6 19.5184 54.6 32C54.6 44.4817 44.4816 54.6 32 54.6C19.5184 54.6 9.39999 44.4817 9.39999 32Z" fill="currentColor"></path>
<path fill-rule="evenodd" clip-rule="evenodd" d="M38.5116 16.5505L38.4286 17L37.9788 17.0817C37.9519 16.9339 37.9994 16.7823 38.1058 16.6763C38.2122 16.5702 38.3639 16.5232 38.5116 16.5505ZM39.0571 17.63C39.1733 18.019 39.3477 18.5037 39.5907 18.9544C39.8487 19.4327 40.1625 19.8321 40.5284 20.0586C40.8276 20.2438 41.1843 20.329 41.6391 20.2079C41.762 19.758 41.6784 19.4046 41.4946 19.1072C41.269 18.7423 40.8692 18.428 40.3894 18.1687C39.9361 17.9238 39.4482 17.7476 39.0571 17.63ZM42.2722 18.6264C42.6336 19.2109 42.7393 19.9236 42.4266 20.7357C42.3797 20.8575 42.283 20.9534 42.1609 20.9993C41.3453 21.306 40.6317 21.1978 40.0472 20.836C39.487 20.4893 39.0789 19.9315 38.786 19.3884C38.4898 18.8393 38.2892 18.2633 38.163 17.8307C38.0995 17.613 38.054 17.4284 38.0241 17.2972C38.0091 17.2315 37.9981 17.1791 37.9906 17.1424C37.9869 17.124 37.984 17.1095 37.9821 17.0993L37.9798 17.0872L37.9791 17.0836L37.9789 17.0825C37.9789 17.0823 37.9788 17.0817 38.4286 17C38.5116 16.5505 38.5115 16.5504 38.5116 16.5505L38.5136 16.5508L38.5172 16.5515L38.5293 16.5538C38.5395 16.5558 38.554 16.5587 38.5724 16.5625C38.6092 16.5701 38.6618 16.5813 38.7277 16.5965C38.8592 16.6269 39.0444 16.6731 39.2627 16.7373C39.6965 16.8648 40.274 17.0671 40.824 17.3643C41.3678 17.6582 41.9263 18.0668 42.2722 18.6264Z" fill="currentColor"></path>
<path fill-rule="evenodd" clip-rule="evenodd" d="M45.9151 18.8398L45.5393 19.1L45.1634 18.8398C45.2488 18.7165 45.3893 18.6429 45.5393 18.6429C45.6893 18.6429 45.8297 18.7165 45.9151 18.8398ZM45.5393 19.9877C45.3462 20.3448 45.1263 20.8108 44.9794 21.3006C44.8236 21.8198 44.7634 22.3211 44.8616 22.7358C44.9418 23.0741 45.1326 23.3825 45.5393 23.6139C45.9459 23.3825 46.1368 23.0741 46.2169 22.7358C46.3152 22.3211 46.255 21.8198 46.0992 21.3006C45.9522 20.8108 45.7324 20.3448 45.5393 19.9877ZM45.5393 19.1C45.1634 18.8398 45.1635 18.8397 45.1634 18.8398L45.1623 18.8414L45.1603 18.8444L45.1533 18.8546C45.1475 18.8632 45.1393 18.8754 45.129 18.891C45.1083 18.9222 45.079 18.9671 45.0432 19.024C44.9716 19.1378 44.8733 19.3004 44.7644 19.499C44.5478 19.8935 44.2825 20.4418 44.1037 21.0378C43.9268 21.6271 43.8207 22.3081 43.972 22.9465C44.1299 23.6134 44.5594 24.1899 45.3537 24.5428C45.4718 24.5953 45.6067 24.5953 45.7249 24.5428C46.5191 24.1899 46.9486 23.6134 47.1066 22.9465C47.2578 22.3081 47.1517 21.6271 46.9749 21.0378C46.7961 20.4418 46.5307 19.8935 46.3142 19.499C46.2052 19.3004 46.1069 19.1378 46.0354 19.024C45.9995 18.9671 45.9703 18.9222 45.9496 18.891C45.9393 18.8754 45.9311 18.8632 45.9252 18.8546L45.9183 18.8444L45.9162 18.8414L45.9156 18.8404C45.9155 18.8403 45.9151 18.8398 45.5393 19.1Z" fill="currentColor"></path>
<path fill-rule="evenodd" clip-rule="evenodd" d="M49.9724 24.6099L49.525 24.7036L49.2792 24.3182C49.4058 24.2374 49.5639 24.224 49.7023 24.2822C49.8407 24.3405 49.9416 24.4629 49.9724 24.6099ZM49.1804 25.5227C48.8628 25.7781 48.478 26.124 48.1514 26.5202C47.8057 26.9398 47.5554 27.3799 47.4854 27.801C47.4282 28.1449 47.4853 28.5039 47.7725 28.8755C48.2371 28.82 48.5328 28.6094 48.7382 28.3276C48.9898 27.9824 49.129 27.4954 49.187 26.9549C49.2417 26.4446 49.2198 25.928 49.1804 25.5227ZM49.525 24.7036C49.2792 24.3182 49.2793 24.3181 49.2792 24.3182L49.2775 24.3192L49.2744 24.3212L49.2641 24.3279C49.2554 24.3336 49.2431 24.3417 49.2274 24.3521C49.1962 24.3729 49.1517 24.4031 49.0965 24.4418C48.9861 24.5193 48.8321 24.6315 48.6542 24.7728C48.3008 25.0535 47.8426 25.4574 47.4459 25.9388C47.0536 26.4147 46.6912 27.0028 46.5835 27.6511C46.4709 28.3284 46.6447 29.0272 47.2426 29.6603C47.3311 29.7541 47.4551 29.806 47.584 29.8035C48.4533 29.7864 49.0729 29.4206 49.477 28.8662C49.8639 28.3355 50.0303 27.6654 50.096 27.0523C50.1625 26.4323 50.1308 25.8226 50.0843 25.374C50.061 25.1482 50.0335 24.9597 50.0117 24.8268C50.0008 24.7602 49.9913 24.7074 49.9843 24.6705C49.9808 24.6521 49.978 24.6376 49.976 24.6274L49.9736 24.6154L49.9728 24.6118L49.9726 24.6106C49.9725 24.6104 49.9724 24.6099 49.525 24.7036Z" fill="currentColor"></path>
<path fill-rule="evenodd" clip-rule="evenodd" d="M51.7646 31.0611C51.7648 31.0611 51.7649 31.0611 51.7464 31.5179C52.1676 31.6956 52.1675 31.6958 52.1675 31.6959L52.1668 31.6974L52.1654 31.7008L52.1605 31.7121C52.1564 31.7216 52.1505 31.7351 52.1429 31.7522C52.1276 31.7864 52.1054 31.8351 52.0765 31.8959C52.0188 32.0174 51.9342 32.1875 51.825 32.386C51.608 32.7804 51.2873 33.2984 50.88 33.7689C50.4772 34.2341 49.9591 34.6887 49.3389 34.903C48.6911 35.127 47.974 35.073 47.2502 34.5913C47.1426 34.5196 47.0704 34.4058 47.0514 34.278C46.9235 33.4178 47.1799 32.7459 47.6583 32.255C48.1163 31.785 48.7483 31.5097 49.3407 31.3434C49.9399 31.1751 50.5451 31.1055 50.9943 31.0771C51.2204 31.0628 51.4104 31.0587 51.5449 31.0582C51.6122 31.058 51.6658 31.0586 51.7032 31.0594C51.7219 31.0598 51.7366 31.0602 51.747 31.0605L51.7593 31.0609L51.763 31.061L51.7646 31.0611ZM51.7464 31.5179L52.1675 31.6959C52.2258 31.5578 52.2127 31.3995 52.1324 31.2729C52.0521 31.1463 51.9144 31.0672 51.7646 31.0611L51.7464 31.5179ZM50.9974 31.9932C50.5922 32.0214 50.0806 32.0852 49.5879 32.2236C49.066 32.3702 48.6105 32.588 48.3131 32.8931C48.0704 33.1422 47.9123 33.4688 47.935 33.9369C48.3487 34.1566 48.7115 34.1525 49.0402 34.0389C49.4429 33.8997 49.8339 33.5802 50.1888 33.1704C50.5237 32.7835 50.7994 32.3478 50.9974 31.9932Z" fill="currentColor"></path>
<path fill-rule="evenodd" clip-rule="evenodd" d="M50.876 37.1796C50.8762 37.1797 50.8763 37.1797 50.7143 37.6072C51.0572 37.9096 51.0571 37.9097 51.0569 37.9098L51.0559 37.911L51.0534 37.9138L51.0452 37.9229C51.0383 37.9306 51.0284 37.9415 51.0157 37.9553C50.9904 37.9829 50.9538 38.0221 50.9071 38.0706C50.8138 38.1674 50.6795 38.3019 50.5129 38.4555C50.1818 38.7606 49.7132 39.1501 49.1775 39.4671C48.6478 39.7806 48.0122 40.0476 47.3563 40.0547C46.6711 40.0621 46.0081 39.7843 45.4748 39.0985C45.3955 38.9965 45.363 38.8656 45.3856 38.7383C45.5369 37.8823 45.9932 37.3265 46.6025 37.0125C47.1859 36.7119 47.8725 36.6508 48.4872 36.6805C49.1089 36.7105 49.7051 36.836 50.1403 36.9511C50.3593 37.0091 50.5408 37.0653 50.6685 37.1074C50.7324 37.1285 50.7831 37.146 50.8183 37.1586C50.836 37.1649 50.8498 37.1699 50.8595 37.1735L50.8711 37.1778L50.8745 37.179L50.876 37.1796ZM50.7143 37.6072L51.0569 37.9098C51.1562 37.7973 51.1941 37.6429 51.158 37.4973C51.1219 37.3516 51.0163 37.2328 50.876 37.1796L50.7143 37.6072ZM49.8522 37.8208C49.459 37.7195 48.9539 37.6184 48.4431 37.5937C47.9016 37.5676 47.4003 37.6299 47.0213 37.8252C46.7121 37.9846 46.4586 38.2443 46.3318 38.6949C46.6537 39.0334 46.9987 39.1442 47.3464 39.1404C47.7726 39.1358 48.245 38.9566 48.7118 38.6803C49.1521 38.4197 49.5517 38.0942 49.8522 37.8208Z" fill="currentColor"></path>
<path fill-rule="evenodd" clip-rule="evenodd" d="M47.8621 42.6242C47.8623 42.6243 47.8624 42.6244 47.6071 43.0036C47.8723 43.376 47.8722 43.3761 47.872 43.3762L47.8707 43.3771L47.8677 43.3792L47.8576 43.3863C47.8491 43.3922 47.837 43.4006 47.8216 43.4112C47.7906 43.4322 47.7461 43.4621 47.6897 43.4986C47.5768 43.5717 47.4156 43.6721 47.2185 43.7837C46.8268 44.0054 46.2821 44.2779 45.6885 44.4647C45.1016 44.6493 44.4221 44.7645 43.7818 44.6221C43.1129 44.4732 42.5306 44.0519 42.167 43.2628C42.1128 43.1454 42.111 43.0105 42.1619 42.8916C42.504 42.0922 43.0747 41.6546 43.7395 41.4875C44.3759 41.3275 45.0584 41.4245 45.6501 41.5935C46.2486 41.7644 46.8004 42.0226 47.1979 42.2339C47.3979 42.3403 47.5618 42.4365 47.6766 42.5066C47.734 42.5416 47.7793 42.5703 47.8108 42.5906C47.8265 42.6007 47.8388 42.6088 47.8475 42.6145L47.8577 42.6213L47.8608 42.6233L47.8621 42.6242ZM47.6071 43.0036L47.872 43.3762C47.9942 43.2892 48.0662 43.1476 48.0642 42.9976C48.0623 42.8476 47.9866 42.708 47.8621 42.6242L47.6071 43.0036ZM46.7196 43.0153C46.3598 42.8269 45.8908 42.6131 45.399 42.4726C44.8777 42.3238 44.3756 42.2703 43.9624 42.3742C43.6251 42.459 43.3192 42.6542 43.0932 43.0644C43.33 43.4675 43.6409 43.6541 43.9804 43.7296C44.3964 43.8222 44.897 43.7552 45.4142 43.5925C45.902 43.4391 46.365 43.2131 46.7196 43.0153Z" fill="currentColor"></path>
<path fill-rule="evenodd" clip-rule="evenodd" d="M26.0212 17.0817L25.5714 17L25.4883 16.5505C25.6361 16.5232 25.7878 16.5702 25.8942 16.6763C26.0006 16.7823 26.0481 16.9339 26.0212 17.0817ZM24.9429 17.63C24.5518 17.7476 24.0638 17.9238 23.6106 18.1687C23.1308 18.428 22.731 18.7423 22.5054 19.1072C22.3215 19.4046 22.2379 19.758 22.3608 20.2079C22.8157 20.329 23.1724 20.2438 23.4716 20.0586C23.8375 19.8321 24.1513 19.4327 24.4093 18.9544C24.6523 18.5037 24.8267 18.019 24.9429 17.63ZM25.5714 17C25.4883 16.5505 25.4885 16.5504 25.4883 16.5505L25.4864 16.5508L25.4828 16.5515L25.4707 16.5538C25.4605 16.5558 25.446 16.5587 25.4276 16.5625C25.3908 16.5701 25.3382 16.5813 25.2723 16.5965C25.1408 16.6269 24.9556 16.6731 24.7373 16.7373C24.3035 16.8648 23.726 17.0671 23.176 17.3643C22.6322 17.6582 22.0737 18.0668 21.7277 18.6264C21.3664 19.2109 21.2607 19.9236 21.5734 20.7357C21.6203 20.8575 21.717 20.9534 21.8391 20.9993C22.6547 21.306 23.3683 21.1978 23.9528 20.836C24.513 20.4893 24.921 19.9315 25.214 19.3884C25.5101 18.8393 25.7108 18.2633 25.837 17.8307C25.9005 17.613 25.946 17.4284 25.9759 17.2972C25.9909 17.2315 26.0019 17.1791 26.0094 17.1424C26.0131 17.124 26.0159 17.1095 26.0179 17.0993L26.0202 17.0872L26.0209 17.0836L26.0212 17.0817C26.0212 17.0815 26.0212 17.0817 25.5714 17Z" fill="currentColor"></path>
<path fill-rule="evenodd" clip-rule="evenodd" d="M18.8366 18.8398L18.4607 19.1L18.0849 18.8398C18.1703 18.7165 18.3107 18.6429 18.4607 18.6429C18.6107 18.6429 18.7512 18.7165 18.8366 18.8398ZM18.4607 19.9877C18.2676 20.3448 18.0478 20.8108 17.9008 21.3006C17.745 21.8198 17.6848 22.3211 17.7831 22.7358C17.8632 23.0741 18.0541 23.3825 18.4607 23.6139C18.8674 23.3825 19.0582 23.0741 19.1384 22.7358C19.2366 22.3211 19.1764 21.8198 19.0206 21.3006C18.8737 20.8108 18.6538 20.3448 18.4607 19.9877ZM18.4607 19.1C18.0849 18.8398 18.085 18.8397 18.0849 18.8398L18.0838 18.8414L18.0817 18.8444L18.0748 18.8546C18.0689 18.8632 18.0607 18.8754 18.0504 18.891C18.0297 18.9222 18.0005 18.9671 17.9647 19.024C17.8931 19.1378 17.7948 19.3004 17.6858 19.499C17.4693 19.8935 17.2039 20.4418 17.0251 21.0378C16.8483 21.6271 16.7422 22.3081 16.8934 22.9465C17.0514 23.6134 17.4809 24.1899 18.2751 24.5428C18.3933 24.5953 18.5282 24.5953 18.6463 24.5428C19.4406 24.1899 19.8701 23.6134 20.028 22.9465C20.1793 22.3081 20.0732 21.6271 19.8964 21.0378C19.7175 20.4418 19.4522 19.8935 19.2356 19.499C19.1267 19.3004 19.0284 19.1378 18.9568 19.024C18.921 18.9671 18.8917 18.9222 18.8711 18.891C18.8607 18.8754 18.8525 18.8632 18.8467 18.8546L18.8398 18.8444L18.8377 18.8414L18.837 18.8404C18.8369 18.8403 18.8366 18.8398 18.4607 19.1Z" fill="currentColor"></path>
<path fill-rule="evenodd" clip-rule="evenodd" d="M14.7208 24.3182L14.475 24.7036L14.0276 24.6099C14.0584 24.4629 14.1593 24.3405 14.2977 24.2822C14.4361 24.224 14.5942 24.2374 14.7208 24.3182ZM14.8196 25.5227C14.7802 25.928 14.7583 26.4446 14.813 26.9549C14.871 27.4954 15.0101 27.9824 15.2618 28.3276C15.4672 28.6094 15.7629 28.82 16.2275 28.8755C16.5147 28.5039 16.5718 28.1449 16.5146 27.801C16.4446 27.3799 16.1943 26.9398 15.8486 26.5202C15.522 26.124 15.1372 25.7781 14.8196 25.5227ZM17.4165 27.6511C17.5291 28.3284 17.3553 29.0272 16.7574 29.6603C16.6689 29.7541 16.5449 29.806 16.416 29.8035C15.5467 29.7864 14.9271 29.4206 14.523 28.8662C14.1361 28.3355 13.9697 27.6654 13.904 27.0523C13.8375 26.4323 13.8692 25.8226 13.9157 25.374C13.939 25.1482 13.9665 24.9597 13.9883 24.8268C13.9992 24.7602 14.0087 24.7074 14.0157 24.6705C14.0192 24.6521 14.022 24.6376 14.024 24.6274L14.0264 24.6154L14.0272 24.6118L14.0276 24.6099C14.0276 24.6097 14.0276 24.6099 14.475 24.7036C14.7208 24.3182 14.7207 24.3181 14.7208 24.3182L14.7225 24.3192L14.7255 24.3212L14.7359 24.3279C14.7446 24.3336 14.7569 24.3417 14.7726 24.3521C14.8038 24.3729 14.8483 24.4031 14.9035 24.4418C15.0139 24.5193 15.1679 24.6315 15.3458 24.7728C15.6992 25.0535 16.1574 25.4574 16.5541 25.9388C16.9463 26.4147 17.3088 27.0028 17.4165 27.6511Z" fill="currentColor"></path>
<path fill-rule="evenodd" clip-rule="evenodd" d="M12.2536 31.5179C11.8326 31.696 11.8326 31.6962 11.8327 31.6963L11.8333 31.6978L11.8348 31.7012L11.8397 31.7125C11.8438 31.722 11.8497 31.7355 11.8574 31.7526C11.8727 31.7867 11.8949 31.8354 11.9238 31.8962C11.9816 32.0175 12.0663 32.1875 12.1757 32.3859C12.393 32.7799 12.714 33.2975 13.1215 33.7677C13.5245 34.2326 14.0426 34.687 14.6624 34.9015C15.3098 35.1256 16.0265 35.0723 16.7496 34.5913C16.8573 34.5197 16.9296 34.4059 16.9486 34.278C17.0765 33.4178 16.8201 32.7459 16.3417 32.255C15.8837 31.785 15.2517 31.5097 14.6593 31.3434C14.0601 31.1751 13.4549 31.1055 13.0057 31.0771C12.7796 31.0628 12.5896 31.0587 12.4551 31.0582C12.3878 31.058 12.3342 31.0586 12.2968 31.0594C12.2781 31.0598 12.2634 31.0602 12.253 31.0605L12.2407 31.0609L12.237 31.061L12.2358 31.0611C12.2357 31.0611 12.2351 31.0611 12.2536 31.5179ZM13.0035 31.9932C13.2017 32.3475 13.4775 32.7825 13.8124 33.1689C14.1675 33.5786 14.5587 33.8981 14.9615 34.0375C15.2901 34.1512 15.6524 34.1554 16.065 33.9367C16.0877 33.4688 15.9296 33.1421 15.6869 32.8931C15.3895 32.588 14.934 32.3702 14.4121 32.2236C13.9198 32.0853 13.4085 32.0215 13.0035 31.9932ZM12.2536 31.5179L12.2351 31.0611C12.0852 31.0672 11.9478 31.1464 11.8675 31.2731C11.7871 31.3998 11.7742 31.5582 11.8327 31.6963L12.2536 31.5179ZM12.2717 31.9746C12.2717 31.9746 12.2717 31.9746 12.2717 31.9746V31.9746ZM12.6745 31.3395C12.6744 31.3394 12.6744 31.3394 12.6745 31.3395V31.3395Z" fill="currentColor"></path>
<path fill-rule="evenodd" clip-rule="evenodd" d="M13.2857 37.6072C12.9428 37.9096 12.9429 37.9097 12.9431 37.9098L12.9441 37.911L12.9466 37.9138L12.9548 37.9229C12.9617 37.9306 12.9716 37.9415 12.9843 37.9553C13.0096 37.9829 13.0462 38.0221 13.0928 38.0706C13.1861 38.1674 13.3204 38.3019 13.4871 38.4555C13.8182 38.7606 14.2868 39.1501 14.8225 39.4671C15.3521 39.7806 15.9877 40.0476 16.6437 40.0547C17.3289 40.0621 17.9919 39.7843 18.5251 39.0985C18.6045 38.9965 18.6369 38.8656 18.6144 38.7383C18.4631 37.8823 18.0068 37.3265 17.3974 37.0125C16.8141 36.7119 16.1274 36.6508 15.5128 36.6805C14.8911 36.7105 14.2949 36.836 13.8597 36.9511C13.6407 37.0091 13.4592 37.0653 13.3315 37.1074C13.2675 37.1285 13.2169 37.146 13.1817 37.1586C13.164 37.1649 13.1502 37.1699 13.1404 37.1735L13.1289 37.1778L13.1255 37.179L13.1244 37.1795C13.1242 37.1795 13.1237 37.1797 13.2857 37.6072ZM14.1478 37.8208C14.4483 38.0942 14.8479 38.4197 15.2882 38.6803C15.755 38.9566 16.2274 39.1358 16.6536 39.1404C17.0013 39.1442 17.3463 39.0334 17.6682 38.6949C17.5414 38.2443 17.2879 37.9846 16.9786 37.8252C16.5997 37.6299 16.0984 37.5676 15.5568 37.5937C15.0461 37.6184 14.541 37.7195 14.1478 37.8208ZM13.2857 37.6072L13.1237 37.1797C12.9833 37.2329 12.8781 37.3516 12.842 37.4973C12.8059 37.6429 12.8438 37.7973 12.9431 37.9098L13.2857 37.6072ZM13.6284 37.3046C13.6283 37.3046 13.6284 37.3046 13.6284 37.3046V37.3046Z" fill="currentColor"></path>
<path fill-rule="evenodd" clip-rule="evenodd" d="M16.3928 43C16.1281 43.3727 16.1282 43.3728 16.1284 43.3729L16.1297 43.3738L16.1327 43.376L16.1428 43.383C16.1513 43.3889 16.1635 43.3973 16.179 43.4079C16.21 43.429 16.2546 43.4588 16.3112 43.4954C16.4244 43.5686 16.5862 43.6691 16.7838 43.7808C17.1764 44.0028 17.7223 44.2757 18.3167 44.4628C18.9042 44.6478 19.5842 44.7636 20.2241 44.6215C20.8929 44.4729 21.474 44.051 21.8339 43.2609C21.8872 43.1439 21.8887 43.0098 21.8381 42.8916C21.496 42.0922 20.9254 41.6545 20.2607 41.487C19.6244 41.3266 18.9419 41.4231 18.3502 41.5916C17.7517 41.7621 17.1999 42.0197 16.8024 42.2307C16.6024 42.3369 16.4384 42.433 16.3237 42.503C16.2662 42.538 16.221 42.5666 16.1895 42.5869C16.1737 42.597 16.1614 42.605 16.1527 42.6107L16.1425 42.6175L16.1394 42.6195L16.1384 42.6202C16.1383 42.6203 16.1378 42.6206 16.3928 43ZM17.2815 43.0117C17.6374 43.21 18.1021 43.4367 18.5913 43.5908C19.1096 43.754 19.6106 43.8212 20.0258 43.729C20.3642 43.6538 20.6733 43.4679 20.9074 43.0655C20.6813 42.6543 20.375 42.4586 20.0373 42.3736C19.624 42.2694 19.1219 42.3225 18.6006 42.4709C18.1095 42.6108 17.6411 42.8238 17.2815 43.0117ZM16.1378 42.6206L16.3928 43L16.1284 43.3729C16.006 43.286 15.9338 43.1443 15.9357 42.9941C15.9377 42.844 16.0132 42.7044 16.1378 42.6206Z" fill="currentColor"></path>
<path fill-rule="evenodd" clip-rule="evenodd" d="M41.6461 20.2821C41.8059 20.0867 42.0939 20.0578 42.2893 20.2176C45.6495 22.9647 47.7673 27.4496 47.7679 32.1055C47.79 35.3171 46.7627 38.4481 44.8423 41.0224C42.9216 43.5971 40.2125 45.474 37.1272 46.3677L37.1256 46.3682C36.8808 46.4381 36.6293 46.5072 36.3735 46.5775C35.2919 46.8748 34.1345 47.1929 33.0862 47.6822C31.8006 48.2821 30.7616 49.1044 30.2852 50.3748C30.1965 50.6112 29.933 50.731 29.6966 50.6424C29.4602 50.5537 29.3405 50.2902 29.4291 50.0538C30.0241 48.4671 31.3066 47.5037 32.6995 46.8536C33.8253 46.3283 35.0773 45.9848 36.1621 45.6871C36.4092 45.6193 36.6476 45.5538 36.8739 45.4892C39.7675 44.6508 42.3081 42.8904 44.1095 40.4757C45.9111 38.0606 46.8746 35.1233 46.8536 32.1104L46.8536 32.1072C46.8536 27.7137 44.8501 23.4922 41.7106 20.9254C41.5152 20.7656 41.4863 20.4776 41.6461 20.2821Z" fill="currentColor"></path>
<path fill-rule="evenodd" clip-rule="evenodd" d="M22.3539 20.2821C22.5137 20.4776 22.4848 20.7656 22.2893 20.9254C19.1499 23.4922 17.1464 27.7137 17.1464 32.1072V32.1104H17.1464C17.1254 35.1233 18.0889 38.0606 19.8905 40.4757C21.6919 42.8904 24.2325 44.6508 27.1261 45.4892C27.3524 45.5539 27.5908 45.6193 27.8378 45.6871C28.9227 45.9848 30.1747 46.3283 31.3004 46.8536C32.6934 47.5037 33.9759 48.4671 34.5709 50.0538C34.6595 50.2902 34.5398 50.5537 34.3034 50.6424C34.067 50.731 33.8035 50.6112 33.7148 50.3748C33.2384 49.1044 32.1994 48.2821 30.9138 47.6822C29.8655 47.1929 28.708 46.8748 27.6265 46.5775C27.3707 46.5072 27.1192 46.4381 26.8744 46.3682L26.8728 46.3677C23.7874 45.474 21.0784 43.5971 19.1577 41.0224C17.2373 38.4481 16.21 35.3171 16.2321 32.1056C16.2326 27.4497 18.3505 22.9647 21.7106 20.2176C21.9061 20.0578 22.1941 20.0867 22.3539 20.2821Z" fill="currentColor"></path>
<path fill-rule="evenodd" clip-rule="evenodd" d="M25.4714 29.1429C25.4714 28.8904 25.6761 28.6857 25.9286 28.6857H38.0714C38.3239 28.6857 38.5286 28.8904 38.5286 29.1429V40.5714C38.5286 40.8239 38.3239 41.0286 38.0714 41.0286H25.9286C25.6761 41.0286 25.4714 40.8239 25.4714 40.5714V29.1429ZM26.3857 29.6V40.1143H37.6143V29.6H26.3857Z" fill="currentColor"></path>
<path fill-rule="evenodd" clip-rule="evenodd" d="M32 22.1C30.9846 22.1 30.0108 22.5034 29.2928 23.2214C28.5748 23.9394 28.1714 24.9132 28.1714 25.9286V28.7857C28.1714 29.0382 27.9668 29.2429 27.7143 29.2429C27.4618 29.2429 27.2571 29.0382 27.2571 28.7857V25.9286C27.2571 24.6707 27.7568 23.4643 28.6463 22.5749C29.5357 21.6854 30.7421 21.1857 32 21.1857C33.2579 21.1857 34.4642 21.6854 35.3537 22.5749C36.2432 23.4643 36.7429 24.6707 36.7429 25.9286V28.7857C36.7429 29.0382 36.5382 29.2429 36.2857 29.2429C36.0332 29.2429 35.8286 29.0382 35.8286 28.7857V25.9286C35.8286 24.9132 35.4252 23.9394 34.7072 23.2214C33.9892 22.5034 33.0154 22.1 32 22.1Z" fill="currentColor"></path>
<path fill-rule="evenodd" clip-rule="evenodd" d="M32 33.5286C31.2662 33.5286 30.6714 34.1234 30.6714 34.8572C30.6714 35.5909 31.2662 36.1857 32 36.1857C32.7337 36.1857 33.3286 35.5909 33.3286 34.8572C33.3286 34.1234 32.7337 33.5286 32 33.5286ZM29.7571 34.8572C29.7571 33.6185 30.7613 32.6143 32 32.6143C33.2387 32.6143 34.2429 33.6185 34.2429 34.8572C34.2429 36.0959 33.2387 37.1 32 37.1C30.7613 37.1 29.7571 36.0959 29.7571 34.8572Z" fill="currentColor"></path>
</g>
<defs>
<clipPath id="clip0_208_4607">
<rect width="45.7143" height="45.7143" fill="currentColor" transform="translate(9.14285 9.14288)"></rect>
</clipPath>
<clipPath id="clip1_208_4607">
<rect width="45.7143" height="45.7143" fill="currentColor" transform="translate(9.14285 9.14288)"></rect>
</clipPath>
</defs>
</svg>