<?xml version="1.0" standalone="no"?>
<!DOCTYPE svg PUBLIC "-//W3C//DTD SVG 20010904//EN"
 "http://www.w3.org/TR/2001/REC-SVG-20010904/DTD/svg10.dtd">
<svg version="1.0" xmlns="http://www.w3.org/2000/svg"
 width="364.000000pt" height="318.000000pt" viewBox="0 0 364.000000 318.000000"
 preserveAspectRatio="xMidYMid meet">

<g transform="translate(0.000000,318.000000) scale(0.100000,-0.100000)"
fill="#000000" stroke="none">
<path d="M1740 3014 c-292 -52 -359 -75 -394 -135 -41 -70 -15 -158 58 -193
46 -21 68 -20 165 9 222 66 483 62 706 -11 88 -29 195 -80 195 -93 0 -5 -13
-14 -29 -21 -51 -21 -74 -54 -79 -114 -3 -44 0 -62 17 -89 37 -61 69 -67 339
-67 261 0 282 4 327 64 19 26 20 42 20 299 0 246 -2 275 -18 299 -38 55 -126
74 -184 38 -54 -32 -67 -63 -71 -166 -3 -61 -8 -94 -16 -94 -6 0 -38 18 -71
41 -137 92 -333 174 -505 211 -91 19 -394 34 -460 22z"/>
<path d="M546 2720 c-100 -30 -131 -154 -56 -228 33 -34 65 -42 161 -42 37 0
71 -4 74 -10 3 -5 -13 -38 -36 -72 -136 -206 -215 -440 -237 -706 -17 -199 32
-521 95 -620 61 -97 213 -72 244 40 8 33 6 54 -15 127 -14 49 -33 147 -43 219
-16 123 -16 140 0 265 11 92 27 168 51 239 37 111 82 201 96 193 5 -3 19 -23
31 -44 27 -49 82 -76 135 -68 44 7 100 58 109 96 3 14 6 134 8 266 2 279 -2
298 -77 335 -39 18 -60 20 -277 19 -129 0 -247 -5 -263 -9z"/>
<path d="M1854 2276 c-36 -16 -72 -59 -80 -95 -10 -46 -23 -71 -38 -71 -9 0
-40 -11 -71 -25 l-55 -26 -34 26 c-26 20 -44 25 -88 25 -49 0 -59 -4 -90 -34
-51 -50 -59 -139 -17 -185 25 -26 24 -33 -9 -116 -28 -68 -30 -69 -76 -81 -59
-15 -93 -45 -108 -96 -23 -79 28 -159 112 -173 37 -6 44 -12 59 -49 45 -105
46 -111 21 -146 -30 -42 -32 -125 -4 -163 47 -63 131 -76 198 -31 l39 26 56
-25 c31 -14 64 -28 73 -31 10 -3 20 -18 23 -33 21 -96 69 -136 154 -130 49 4
59 8 88 42 18 21 33 49 33 62 0 32 17 63 35 63 8 0 39 12 68 26 l54 27 39 -27
c28 -19 51 -26 87 -26 42 0 53 5 90 39 39 36 41 42 41 93 0 40 -6 62 -22 85
-24 34 -27 54 -12 81 6 9 19 38 29 63 18 43 23 48 60 54 79 13 135 96 117 170
-11 44 -57 85 -110 98 -49 13 -50 14 -78 82 -33 83 -34 96 -9 119 44 40 36
131 -17 182 -31 30 -41 34 -90 34 -44 0 -62 -5 -89 -26 l-34 -26 -47 23 c-26
12 -58 25 -72 29 -16 4 -28 17 -33 36 -15 52 -41 97 -67 115 -35 25 -89 32
-126 15z m116 -578 c56 -29 81 -64 87 -120 15 -130 -127 -217 -235 -145 -103
68 -92 210 20 266 54 27 73 26 128 -1z"/>
<path d="M3083 2124 c-18 -9 -40 -28 -50 -43 -22 -33 -22 -110 -1 -171 36
-101 51 -204 51 -345 1 -195 -34 -357 -110 -508 -37 -74 -48 -77 -73 -17 -39
94 -188 90 -235 -7 -12 -25 -15 -77 -15 -281 0 -138 4 -262 9 -275 6 -14 27
-38 47 -54 l37 -28 261 0 c259 0 261 0 295 24 59 42 77 117 43 180 -28 53 -72
71 -170 71 -92 0 -111 13 -75 53 50 55 138 228 188 367 103 291 96 743 -15
975 -34 69 -115 94 -187 59z"/>
<path d="M824 806 c-17 -8 -42 -29 -55 -47 -24 -33 -24 -38 -27 -289 -3 -286
0 -303 67 -347 40 -27 80 -29 127 -7 60 29 78 65 82 171 5 108 8 110 79 60
110 -78 282 -157 418 -193 191 -51 419 -67 586 -40 296 47 369 84 376 188 5
63 -9 94 -57 126 -43 29 -83 27 -225 -13 -93 -26 -113 -28 -290 -29 -201 0
-225 4 -394 60 -78 25 -171 72 -171 85 0 4 18 18 41 31 42 24 79 79 79 119 0
30 -36 90 -68 114 -25 19 -45 20 -282 22 -200 2 -262 0 -286 -11z"/>
</g>
</svg>
