<?xml version="1.0" encoding="utf-8"?>
<!-- Generator: Adobe Illustrator 19.2.1, SVG Export Plug-In . SVG Version: 6.00 Build 0)  -->
<svg version="1.1" id="layer" xmlns="http://www.w3.org/2000/svg" xmlns:xlink="http://www.w3.org/1999/xlink" x="0px" y="0px"
	 viewBox="0 0 652 652" style="enable-background: new 0 0 652 652" xml:space="preserve">
<style type="text/css">
	.st0{enable-background:new    ;}
	.st1{fill:#225E63;}
	.st2{fill:#FEFEFE;}
	.st3{fill:#2BBC5D;}
</style>
<g id="Page-1">
	<g transform="matrix(2.2,0,0,2.9,-373.9,-638.1)">
		<g id="Rectangle-3-_x2B_-Letters" transform="translate(0,8.5)">
			<path id="Rectangle-3" class="st1" d="M 459.4 348.9 l 19.7 -6.2 l -6.4 -14.2 C 468 334.4 463.3 342 459.4 348.9 z M 452.7 284 l -38.6 -86 l -282.6 16 l 78.3 213.6 l 150.7 -47.5 c -9.6 -13.8 -13.1 -30.2 -2 -38.2 c 12.4 -9 31.1 1.4 43 16.1 C 413 338.8 445.3 294.1 452.7 284 z"/>
			<g id="Letters" transform="translate(102,41.3)">
				<path id="Oval-1" class="st2" d="M 303.3 218.8 c 11.8 0 21.4 -9 21.4 -20.2 c 0 -11.2 -9.6 -20.2 -21.4 -20.2 c -11.8 0 -21.4 9 -21.4 20.2 C 281.9 209.7 291.5 218.8 303.3 218.8 z M 285.8 227.5 h 35 v 91.5 h -35 V 227.5 z"/>
				<path id="Path-3" class="st2" d="M 268.5 254.2 c 0.3 0.1 0.5 0 0.5 -0.3 v -23.2 c 0 -0.3 -0.2 -0.6 -0.5 -0.8 c 0 0 -4.6 -3 -18.6 -3.8 c -0.7 -0.4 -13 -0.5 -16.3 0 c -51 4.1 -52.9 41 -52.9 42.6 v 9 c 0 1.1 0 38.8 52.9 42.1 c 5.2 0.4 15.3 0 16.3 0 c 12.2 0 20.6 -3.7 20.6 -3.7 c 0.3 -0.1 0.5 -0.4 0.5 -0.7 v -21.7 c 0 -0.3 -0.2 -0.4 -0.4 -0.2 c 0 0 -3.8 3 -20.4 4.7 c -4.7 0.5 -7 0.3 -8.7 0 c -23.6 -4 -24.7 -21.2 -24.7 -21.2 c 0 -0.3 -0.1 -0.8 -0.1 -1 v -6.6 c 0 -0.3 0 -0.8 0.1 -1 c 0 0 1.6 -18.5 24.7 -20.5 h 8.7 C 260.3 249.2 268.5 254.2 268.5 254.2 z"/>
				<path id="Path-1" class="st2" d="M 83.5 318.7 c 0 0.3 0.2 0.5 0.5 0.5 H 118.1 c 0.3 0 0.5 -0.2 0.5 -0.5 v -26.6 c 0 -0.3 0.2 -0.5 0.5 -0.5 c 0 0 54.5 3.9 54.5 -32.6 c 0 -28.9 -34.2 -32 -45.4 -31.5 c -0.2 0 -44.2 0 -44.2 0 c -0.3 0 -0.5 0.2 -0.5 0.5 L 83.5 318.7 z M 118 271.3 v -23.9 h 8.4 c 0 0 12.1 0.5 13.1 8.8 c 0.2 0.6 0.2 4.7 0 4.9 c -1.6 9.7 -12.1 10.2 -12.1 10.2 L 118 271.3 z"/>
			</g>
			<path id="Path-7" class="st3" d="M 406.3 404.5 c 2.8 0 5 0 8.6 -1.6 c 12.4 -6.5 54.3 -108.8 98.5 -140.3 c 0.3 -0.2 0.6 -0.5 0.8 -0.8 c 0.3 -0.4 0.3 -0.8 0.3 -0.8 s 0 -2.1 -6.5 -2.1 c -39.3 -1.1 -80.2 81.4 -101.7 114 c -0.3 0.4 -1.7 0 -1.7 0 s -14.4 -17 -26.9 -23.5 c -0.3 -0.1 -1.7 -0.6 -3.2 -0.5 c -1 0 -6.8 1.2 -9.5 4 c -3.2 3.4 -3.1 5.3 -3.1 9.4 c 0 0.3 0.2 1.7 0.6 2.4 c 3.1 5.4 17 24.6 28.5 35.2 C 392.7 401.2 395.4 404.5 406.3 404.5 z"/>
		</g>
		
	</g>
</g>
</svg>
