<svg width="30" height="28" viewBox="0 0 30 28" fill="none" xmlns="http://www.w3.org/2000/svg">
<path d="M12 11.9999H7.6515L7.653 11.9819C7.84886 10.7031 8.23219 9.48848 8.781 8.40774C9.59768 6.80333 10.7432 5.54598 12.081 4.78563C12.534 4.52962 13.0065 4.33362 13.488 4.20361C14.4868 3.9336 15.5162 3.9336 16.515 4.20361C17.9505 4.59581 19.2677 5.54248 20.3025 6.9257L22.4265 4.10161C21.4692 2.82485 20.3366 1.80562 19.0905 1.09952C18.455 0.740765 17.7942 0.467405 17.118 0.283492C15.7228 -0.0944975 14.2847 -0.0944975 12.8895 0.283492C12.2128 0.468167 11.5515 0.742192 10.9155 1.10152C9.04129 2.16176 7.4369 3.92179 6.2955 6.16967C5.52733 7.68543 4.99015 9.38776 4.7145 11.1798C4.6725 11.4498 4.65 11.7258 4.62 11.9999H0L6 20.0001L12 11.9999ZM18 16H22.3485L22.347 16.016C21.9551 18.5796 20.8218 20.8343 19.1925 22.2922C18.3822 23.0245 17.4712 23.5357 16.512 23.7962C15.5137 24.0662 14.4848 24.0662 13.4865 23.7962C12.5275 23.5351 11.6165 23.0239 10.806 22.2922C10.4079 21.9332 10.0363 21.5246 9.696 21.0721L7.575 23.9002C8.53276 25.1766 9.66589 26.1952 10.9125 26.9003C11.5485 27.2603 12.213 27.5343 12.885 27.7163C14.2797 28.0946 15.7173 28.0946 17.112 27.7163C19.8008 26.9722 22.1659 24.8591 23.7045 21.8262C24.4719 20.3116 25.0086 18.6106 25.284 16.82C25.3245 16.55 25.3485 16.274 25.3785 16H30L24 7.99973L18 16Z" fill="#111C4E"/>
</svg>
