<svg width="28" height="28" viewBox="0 0 28 28" fill="none" xmlns="http://www.w3.org/2000/svg">
<path d="M11.9741 23.9475C14.6309 23.947 17.211 23.0576 19.3038 21.421L25.8836 28.0008L28 25.8843L21.4202 19.3046C23.0577 17.2116 23.9476 14.6308 23.9483 11.9734C23.9483 5.37116 18.5764 -0.000732422 11.9741 -0.000732422C5.37189 -0.000732422 0 5.37116 0 11.9734C0 18.5756 5.37189 23.9475 11.9741 23.9475ZM11.9741 2.9928C16.9269 2.9928 20.9547 7.0206 20.9547 11.9734C20.9547 16.9262 16.9269 20.954 11.9741 20.954C7.02133 20.954 2.99353 16.9262 2.99353 11.9734C2.99353 7.0206 7.02133 2.9928 11.9741 2.9928Z" fill="#111C4E"/>
</svg>
